<svg width="187" height="84" viewBox="0 0 187 84" fill="none" xmlns="http://www.w3.org/2000/svg">
<path d="M79.7334 4.46667C78.6667 5.4 81.6 13 83.0667 13C83.7334 13 84 11.6667 83.4667 9.93333C83.0667 8.33333 82.6667 6.2 82.6667 5.26667C82.6667 3.66667 81.0667 3.13333 79.7334 4.46667Z" fill="black"/>
<path d="M18.4 1.93341C17.2 3.26675 14.2667 7.93341 12 12.3334C9.73333 16.7334 6.93333 20.8667 5.86667 21.4001C4.66667 22.0667 4 24.8667 4 29.4001C4 33.2667 3.06667 39.6667 2 43.6667C0.933333 47.6667 0 51.1334 0 51.2667C0 51.5334 0.8 51.6667 1.73333 51.6667C2.8 51.6667 4.13333 48.3334 5.2 43.6667C6.26667 39.2667 7.46667 35.2667 8.13333 34.8667C8.8 34.4667 11.4667 34.7334 14 35.5334C16.5333 36.2001 18.6667 36.3334 18.6667 35.8001C18.6667 34.4667 12.5333 31.6667 10 31.6667C8.93333 31.6667 8 30.6001 8 29.1334C8 26.0667 18.4 5.00008 19.8667 5.00008C21.4667 5.00008 22.8 38.3334 21.3333 44.3334C20.6667 47.2667 20.6667 50.2001 21.3333 50.8667C21.8667 51.4001 23.0667 48.6001 24 44.4667C25.7333 36.2001 24 3.13341 21.7333 0.866745C20.9333 0.0667454 19.6 0.466745 18.4 1.93341Z" fill="black"/>
<path d="M97.3334 11.6666C97.3334 15.4 96.4001 20.6 95.3334 23.2666C94.2667 25.8 93.3334 29.6666 93.3334 31.6666C93.3334 36.4666 87.8667 44.3333 84.6667 44.3333C82.4001 44.3333 82.0001 43.2666 81.6001 37.2666L81.2001 30.2L74.8001 36.8666C71.3334 40.6 67.8667 43.6666 66.9334 43.6666C66.1334 43.6666 64.8001 41.2666 64.0001 38.3333C62.2667 31.6666 61.0667 31.1333 56.9334 34.3333C52.8001 37.6666 52.0001 37.6666 52.0001 34.3333C52.0001 30.8666 47.4667 28.4666 44.1334 30.3333C42.2667 31.2666 40.4001 31.2666 37.8667 30.2C35.0667 29.2666 33.3334 29.2666 31.0667 30.4666C28.0001 32.0666 26.8001 35.6666 29.3334 35.6666C30.1334 35.6666 30.6667 34.7333 30.6667 33.6666C30.6667 31.2666 35.2001 31 37.0667 33.4C37.8667 34.3333 38.1334 36.6 37.7334 38.2C37.2001 40.6 37.4667 41.1333 38.8001 40.7333C39.8667 40.4666 40.8001 38.8666 41.0667 37.2666C41.6001 34.0666 45.8667 31 48.0001 32.3333C48.8001 32.7333 49.3334 35.5333 49.3334 38.4666C49.3334 44.7333 50.5334 45 54.4001 39.6666C56.1334 37.4 58.0001 35.6666 58.5334 35.6666C59.2001 35.6666 60.9334 37.9333 62.2667 40.6C63.6001 43.2666 65.3334 45.8 66.2667 46.0666C67.0667 46.3333 70.2667 44.3333 73.2001 41.5333C78.2667 37.1333 78.6667 37 78.6667 39.5333C78.6667 43.9333 81.0667 47.6666 83.8667 47.6666C87.3334 47.6666 92.9334 40.7333 94.6667 34.3333C95.4667 31.4 96.5334 29 97.0667 29C97.6001 29 99.0667 33.8 100.4 39.5333C101.733 45.4 103.733 50.8666 104.933 51.9333C106.933 53.5333 107.067 53.2666 106.133 50.3333C103.467 41 101.333 31.1333 102 30.6C102.4 30.2 106.667 31.1333 111.333 32.6C116.133 34.2 120 34.8666 120 34.3333C120 33.1333 106.4 27.6666 103.467 27.6666C100.8 27.6666 100 24.6 100 15C100 10.3333 99.4667 6.06662 98.6667 5.66662C97.8667 5.13329 97.3334 7.39996 97.3334 11.6666Z" fill="black"/>
<path d="M44 65.4001C44 66.6001 45.0667 68.0667 46.4 68.7334C47.6 69.4001 62.1333 70.3334 78.6667 70.8667C106.667 71.6667 115.867 72.4667 158 77.6667C180.4 80.4667 182.8 81.0001 182 82.4667C181.467 83.1334 181.733 83.6667 182.4 83.6667C183.867 83.6667 187.333 79.8001 186.533 79.1334C186.267 78.8667 175.2 77.4001 162 75.8001C148.8 74.2001 131.467 72.0667 123.333 71.0001C115.333 69.9334 95.2 68.7334 78.6667 68.3334C54.1333 67.5334 48.2667 67.0001 46.4 65.4001C44.2667 63.4001 44 63.4001 44 65.4001Z" fill="black"/>
</svg>
